<svg xmlns="http://www.w3.org/2000/svg" viewBox="0 0 1219 987" fill="currentColor">
  <path d="M487.5 0C354.7 0 230.5 60.6 145 161.4 59.5 262.2 13.7 393.4 14.5 528.6c.7 135.2 47.7 265.9 134.1 365.7C235 994.1 359.7 1053 492.5 1051.5V777.4c-66.7.8-131-26.5-176.9-75.1-45.9-48.6-71.6-114.6-70.9-182.6.7-68 27.7-133.5 74.4-181.3 46.7-47.8 111.4-74 178.1-72.2V-.5c-3.2-.1-6.4-.2-9.7-.2zM730.5 0c-3.2.1-6.4.2-9.7.3v273.8c66.7-.8 131 26.5 176.9 75.1 45.9 48.6 71.6 114.6 70.9 182.6-.7 68-27.7 133.5-74.4 181.3-46.7 47.8-111.4 74-178.1 72.2v273.8c132.8 1.5 257-59.1 342.5-159.9 85.5-100.8 131.3-232 130.5-367.2-.7-135.2-47.7-265.9-134.1-365.7C967 60.9 842.3-1.5 730.5 0z"/>
  <circle cx="1162.5" cy="140.5" r="140.5"/>
  <rect x="977" y="673" width="277" height="277"/>
</svg>
